# xmcd
#
# Track frame offsets:
#	150
#	15720
#	30908
#	45633
#	60885
#	78145
#	96178
#	112905
#	128720
#	144503
#	165130
#	179328
#	194493
#	210918
#	225470
#	242228
#	258995
#	273150
#
# Disc length: 3869 seconds
#
# Revision: 1
# Processed by: cddbd v1.5.1PL0 Copyright (c) Steve Scherf et al.
# Submitted via: CDex 1.50Beta5
#
DISCID=d60f1b12
DTITLE=さまざまなアーティスト - 最新テレビまんが大行進
DYEAR=1900
DGENRE=
TTITLE0=仮面ライダーBLACK
TTITLE1=Long long ago, 20th Century
TTITLE2=ジライヤ
TTITLE3=SHI-NO-BI '88
TTITLE4=輝け!ラーメンマン
TTITLE5=希望への旅
TTITLE6=正調 おそ松節
TTITLE7=おそ松くん音頭
TTITLE8=クエスチョンの冒険
TTITLE9=憧れミステリー
TTITLE10=ドリーミング・A・Go-Go
TTITLE11=スーパー・ウォーズ
TTITLE12=虹の橋
TTITLE13=私の町はメリーゴーランド
TTITLE14=ペガサス幻想(ファンタジー)
TTITLE15=Hold Me!
TTITLE16=夢冒険
TTITLE17=メビウスの恋人
EXTD=
EXTT0=
EXTT1=
EXTT2=
EXTT3=
EXTT4=
EXTT5=
EXTT6=
EXTT7=
EXTT8=
EXTT9=
EXTT10=
EXTT11=
EXTT12=
EXTT13=
EXTT14=
EXTT15=
EXTT16=
EXTT17=
PLAYORDER=
